PathFileType	4	(X/Y/Z)	Kaydara																																																																																																																																																																																																																												
DataRate	CameraRate	NumFrames	NumMarkers	Units	OrigDataRate	OrigDataStartFrame	OrigNumFrames																																																																																																																																																																																																																								
60	60	5	74	mm	60	2188	203																																																																																																																																																																																																																								
Frame#	Time	N_lasi			N_rasi			N_rpsi			N_lpsi			N_fneck			N_bneck			N_fhead			N_rhead			N_lhead			N_rshld			N_relbtop			N_relbext			N_relblow			N_rwrext			N_rwrtop			N_rwrlow			N_lshld			N_lelblow			N_lelbtop			N_lwrext			N_lwrtop			N_lwrlow			N_rtopleg			N_ltopleg			N_rkneefr			N_rkneebk			N_rkneeis			N_lkneefr			N_lknssbk			N_lkneeis			N_rankfr			N_rankis			N_rankbk			N_lankfr			N_lankbk			N_lankis			D_lasi			D_rasi			D_lpsi			D_fneck			D_bneck			D_fhead			D_rhead			D_lhead			D_rshld			D_relbtop			D_relbext			D_relblow			D_rwrext			D_rwrtop			D_rwrlow			D_lshld			D_lelbext			D_lelblow			D_lelbtop			D_lwrext			D_lwrtop			D_lwrlow			D_rtopleg			D_ltopleg			D_rkneefr			D_rkneebk			D_rkneeis			D_lkneefr			D_lknssbk			D_lkneeis			D_rankfr			D_rankis			D_rankbk			D_lankfr			D_lankbk			D_lankis			D_rpsi			N_lelbext		
		X1	Y1	Z1	X2	Y2	Z2	X3	Y3	Z3	X4	Y4	Z4	X5	Y5	Z5	X6	Y6	Z6	X7	Y7	Z7	X8	Y8	Z8	X9	Y9	Z9	X10	Y10	Z10	X11	Y11	Z11	X12	Y12	Z12	X13	Y13	Z13	X14	Y14	Z14	X15	Y15	Z15	X16	Y16	Z16	X17	Y17	Z17	X18	Y18	Z18	X19	Y19	Z19	X20	Y20	Z20	X21	Y21	Z21	X22	Y22	Z22	X23	Y23	Z23	X24	Y24	Z24	X25	Y25	Z25	X26	Y26	Z26	X27	Y27	Z27	X28	Y28	Z28	X29	Y29	Z29	X30	Y30	Z30	X31	Y31	Z31	X32	Y32	Z32	X33	Y33	Z33	X34	Y34	Z34	X35	Y35	Z35	X36	Y36	Z36	X37	Y37	Z37	X38	Y38	Z38	X39	Y39	Z39	X40	Y40	Z40	X41	Y41	Z41	X42	Y42	Z42	X43	Y43	Z43	X44	Y44	Z44	X45	Y45	Z45	X46	Y46	Z46	X47	Y47	Z47	X48	Y48	Z48	X49	Y49	Z49	X50	Y50	Z50	X51	Y51	Z51	X52	Y52	Z52	X53	Y53	Z53	X54	Y54	Z54	X55	Y55	Z55	X56	Y56	Z56	X57	Y57	Z57	X58	Y58	Z58	X59	Y59	Z59	X60	Y60	Z60	X61	Y61	Z61	X62	Y62	Z62	X63	Y63	Z63	X64	Y64	Z64	X65	Y65	Z65	X66	Y66	Z66	X67	Y67	Z67	X68	Y68	Z68	X69	Y69	Z69	X70	Y70	Z70	X71	Y71	Z71	X72	Y72	Z72	X73	Y73	Z73	X74	Y74	Z74
																																																																																																																																																																																																																															
178	36.45	-520.93258	1270.98473	-67.08479	-506.16867	1285.61722	-296.61076	-245.44144	1245.58685	-350.60154	-271.78337	1232.53754	6.20796	-385.25158	1608.228	-166.76306	-222.75837	1662.00531	-144.8604	-441.58302	1800.31784	-175.62569	-244.66991	1774.19281	-204.93069	-313.53695	1772.4147	-66.53615	-223.21577	1652.80121	-270.5286	-334.25922	1797.04819	-455.55973	-411.40041	1765.97961	-418.38303	-331.92135	1822.37244	-366.40453	-481.17641	2114.83826	-480.44666	-475.82298	2123.46146	-433.1039	-511.84864	2101.16989	-409.52362	-226.79029	1622.70111	-14.04958	-316.38443	1786.81625	122.74031	-330.66986	1744.8349	200.39267	-446.9648	2075.9848	228.83387	-422.2385	2089.86832	190.57009	-460.00687	2070.65781	156.01693	-404.03809	1088.03375	-434.24198	-369.15993	1054.63608	51.93525	-427.55157	562.25773	-255.92968	-321.3929	579.72256	-323.87299	-366.45302	564.58733	-162.66472	-379.51035	539.19849	-96.64641	-253.38032	555.36098	-37.34211	-254.69397	547.70264	-187.22326	-296.37123	140.06363	-269.80415	-298.61315	154.62762	-190.04457	-216.83653	141.54909	-214.58481	-331.86317	192.91336	-117.07994	-258.61015	185.27967	-74.79248	-294.61015	164.27967	-158.79248	-449.03328	1041.02608	1739.50699	-417.60387	1058.17146	1455.09842	-251.11507	1131.72165	1741.00464	-416.23795	1564.95529	1597.58194	-278.82389	1590.74844	1597.0813	-449.03625	1783.2991	1600.40466	-292.5787	1727.64328	1520.14282	-297.46229	1726.21017	1675.32166	-344.46209	1529.87656	1402.94083	-380.53822	1309.51675	1158.04909	-424.74255	1315.2916	1225.82077	-373.44627	1394.85779	1191.94771	-609.76624	1437.67303	1126.34331	-584.81209	1488.48969	1136.76941	-587.65652	1474.77249	1189.01413	-316.83916	1529.76151	1814.69818	-358.51799	1303.36075	1985.77225	-285.80236	1360.76416	2013.37585	-283.66722	1277.95334	2012.332	-451.3253	1336.82144	2207.59949	-444.49162	1380.49942	2203.83331	-473.29594	1394.61777	2166.59821	-326.58585	1004.78035	1406.1647	-309.06178	1010.51575	1806.40961	-372.72144	455.5653	1449.11514	-273.02094	490.61783	1421.01563	-280.11066	458.54042	1541.84814	-355.37403	448.83991	1770.59814	-242.32132	485.43591	1784.82803	-315.63334	443.53401	1678.6203	-323.62343	130.1488	1417.43271	-294.45847	126.59371	1482.00027	-243.18531	127.56649	1417.23907	-322.56096	135.1647	1792.51129	-249.54306	124.60548	1805.89981	-293.53548	123.83905	1732.84332	-225.45952	1143.70705	1523.97415	-402.75391	1733.01987	146.18098
179	36.467	-520.88005	1270.85533	-66.86031	-506.24424	1285.46112	-296.37222	-245.6414	1245.50781	-350.43415	-271.74362	1232.4823	6.30036	-385.25158	1608.228	-166.76306	-222.75837	1662.00531	-144.8604	-441.64299	1800.30533	-175.51073	-245.64716	1774.41681	-203.59016	-313.58194	1772.53998	-66.40211	-223.54404	1652.75574	-270.55136	-334.62418	1796.81961	-455.77652	-411.68922	1765.77942	-418.60405	-332.30381	1822.32971	-366.66	-481.67526	2114.40887	-481.79432	-476.43608	2123.15994	-434.39808	-512.62501	2100.85541	-410.67345	-226.90712	1622.71515	-13.76226	-316.56952	1786.72668	123.29001	-330.87807	1744.58313	200.7906	-447.12769	2075.35919	230.40907	-423.00003	2089.40094	192.20181	-460.86948	2070.22995	157.66525	-404.25095	1087.90672	-434.00696	-368.99849	1054.60045	52.16559	-427.65022	562.23888	-255.7147	-321.54305	579.73003	-323.72471	-366.46816	564.53957	-162.47013	-379.46281	539.1518	-96.47306	-253.28987	555.32738	-37.21445	-254.72637	547.70336	-187.17014	-296.39866	140.05808	-269.77423	-298.60416	154.63353	-189.98837	-216.81311	141.5612	-214.60358	-331.8404	192.88786	-117.00882	-258.52865	185.24845	-74.80096	-294.52865	164.24845	-158.80096	-449.12113	1041.42044	1739.65118	-418.17162	1057.88246	1455.29739	-251.30606	1132.00455	1741.17035	-416.10027	1565.2124	1596.82999	-278.59934	1590.80246	1595.71915	-448.47797	1783.27454	1600.72342	-292.7132	1727.94708	1519.04266	-296.5202	1726.02707	1674.39117	-344.11716	1533.74725	1403.83682	-389.05621	1329.37286	1150.10841	-433.35285	1335.01068	1217.55722	-376.60484	1412.40402	1187.7301	-610.36873	1474.64935	1125.19226	-580.9269	1522.65244	1137.06337	-584.68159	1507.56226	1188.63144	-316.88946	1533.90564	1812.58789	-361.51497	1320.15411	1996.15967	-287.7207	1378.64395	2019.81293	-286.954	1295.75699	2023.43231	-449.47502	1370.50385	2216.68259	-443.02555	1414.79095	2211.42258	-473.52596	1424.2244	2171.1084	-327.10896	1004.50516	1406.40228	-309.27048	1010.72845	1806.63177	-372.756	455.51022	1449.33624	-272.9954	490.65208	1421.11526	-280.24912	458.42445	1541.93436	-355.52551	448.79242	1771.09756	-242.49083	485.46185	1785.09705	-315.84543	443.68034	1678.97842	-323.63586	130.11824	1417.53784	-294.5101	126.50034	1482.08099	-243.20324	127.55796	1417.33185	-322.58923	135.10874	1792.60101	-249.54535	124.59871	1805.97061	-293.59533	123.86391	1733.02307	-226.06281	1143.62442	1524.02695	-402.77905	1732.7655	146.78843
180	36.483	-520.85339	1270.72144	-66.60123	-506.39088	1285.29358	-296.09932	-245.83906	1245.44815	-350.30159	-271.69138	1232.47368	6.42395	-385.25158	1608.228	-166.76306	-222.75837	1662.00531	-144.8604	-441.77544	1800.32196	-175.4003	-245.48677	1774.38354	-204.07898	-313.5541	1772.61887	-66.39105	-223.77773	1652.75864	-270.60034	-334.94648	1796.65741	-455.94048	-412.02045	1765.60471	-418.76015	-332.72083	1822.27768	-366.86672	-481.84155	2113.98529	-482.89555	-477.04067	2122.85187	-435.59727	-513.32142	2100.62408	-411.80752	-227.08004	1622.76688	-13.60625	-316.70254	1786.62964	123.71453	-330.91282	1744.3399	201.28366	-447.39323	2074.86313	231.95097	-423.40668	2089.077	193.55417	-461.61201	2069.78302	159.32495	-404.49516	1087.78778	-433.76621	-368.82797	1054.52583	52.38609	-427.76749	562.22694	-255.47825	-321.67675	579.72488	-323.5807	-366.47144	564.52797	-162.27329	-379.41578	539.13822	-96.32724	-253.18892	555.30983	-37.10232	-254.74295	547.68745	-187.07943	-296.44753	140.07627	-269.77375	-298.59312	154.59939	-189.94471	-216.81297	141.56831	-214.6026	-331.80714	192.89177	-116.99356	-258.42047	185.22318	-74.70315	-294.42047	164.22318	-158.70315	-449.34181	1041.79092	1739.99619	-418.79677	1057.56119	1455.7428	-251.59698	1132.1418	1741.39999	-415.96466	1565.14816	1596.13785	-278.55839	1590.94635	1593.8858	-448.01418	1783.38272	1600.74799	-292.833	1728.08014	1517.49054	-295.57375	1725.66788	1672.85751	-343.79925	1538.10364	1404.99329	-397.42432	1351.61743	1142.65656	-441.85349	1357.01859	1209.4857	-380.1416	1431.78909	1183.45016	-609.91856	1513.78433	1124.9762	-576.36723	1558.61145	1138.554	-581.10722	1542.01324	1189.4236	-316.6931	1538.3609	1809.84421	-364.55196	1337.34985	2004.86557	-289.44042	1396.71722	2024.2659	-289.64712	1314.44931	2032.66907	-446.88725	1401.89285	2223.85986	-441.84696	1445.43259	2214.31198	-473.39981	1451.82159	2175.48203	-327.59686	1004.21425	1406.87454	-309.44933	1010.97748	1807.08069	-372.80025	455.4092	1449.93134	-272.99259	490.67814	1421.35483	-280.22942	458.34587	1542.25601	-355.52921	448.78895	1771.53015	-242.56683	485.45116	1785.50507	-315.94334	443.7434	1679.34937	-323.58967	130.1611	1417.71423	-294.49699	126.47089	1482.19772	-243.18821	127.55636	1417.45621	-322.60612	135.16622	1792.66846	-249.52436	124.6129	1806.09299	-293.55534	123.89942	1733.1221	-226.63126	1143.6097	1523.80341	-402.92358	1732.59583	147.37066
181	36.5	-520.79472	1270.54489	-66.26088	-506.54701	1285.14481	-295.78091	-246.05169	1245.42244	-350.15102	-271.66275	1232.45468	6.5449	-385.25158	1608.228	-166.76306	-222.75837	1662.00531	-144.8604	-441.9471	1800.37552	-175.22461	-245.50983	1774.27277	-204.38951	-313.64946	1772.67197	-66.24253	-224.05621	1652.78244	-270.65489	-335.28259	1796.48636	-456.07761	-412.55188	1765.48492	-419.03877	-333.1424	1822.20474	-367.06223	-482.2168	2113.67584	-484.02359	-477.2435	2122.62634	-436.61819	-513.33702	2100.47516	-413.16959	-227.19643	1622.81921	-13.50418	-316.83733	1786.59378	123.99676	-330.84274	1744.12155	201.76439	-447.65026	2074.552	233.39249	-424.1349	2088.59085	194.80785	-462.3196	2069.49829	160.79092	-404.75903	1087.70119	-433.53989	-368.70384	1054.43771	52.63198	-427.85694	562.20814	-255.30298	-321.86806	579.72813	-323.3989	-366.52855	564.5377	-162.0517	-379.44122	539.05533	-96.26519	-252.97455	555.30731	-37.07823	-254.71891	547.69539	-186.99566	-296.47232	140.1018	-269.75384	-298.61704	154.6113	-189.93166	-216.81917	141.58499	-214.59526	-331.79699	192.89726	-116.89257	-258.33097	185.21036	-74.58957	-294.33097	164.21036	-158.58957	-449.61929	1041.99173	1740.41977	-419.37153	1057.09221	1456.02798	-251.94607	1132.31522	1741.7662	-416.04767	1565.29602	1595.12863	-278.50447	1591.0936	1591.88324	-447.6424	1783.71552	1600.36636	-293.13879	1728.30841	1515.89935	-294.7603	1725.2565	1671.08719	-343.29662	1542.48077	1406.76025	-405.35107	1375.569	1136.78505	-450.82104	1381.54404	1202.33276	-383.76648	1452.84729	1180.40924	-607.98145	1554.56894	1125.89706	-570.89493	1596.01288	1141.07521	-577.14016	1577.95822	1191.6169	-316.40446	1542.97195	1806.01013	-366.31954	1354.5932	2013.08548	-291.38283	1414.75586	2027.42447	-292.3101	1333.12134	2039.84268	-443.35552	1430.73486	2230.29541	-440.02819	1473.32138	2217.5325	-473.19317	1476.15356	2179.79324	-328.06797	1004.03999	1407.53983	-309.76803	1011.147	1807.70142	-372.89703	455.33344	1450.31311	-272.93665	490.64579	1421.70944	-280.12098	458.30196	1542.71484	-355.54993	448.78906	1771.87561	-242.58276	485.48431	1785.99625	-315.98591	443.79665	1679.79935	-323.58604	130.19144	1417.84653	-294.53621	126.40195	1482.31094	-243.23542	127.53755	1417.61688	-322.598	135.15972	1792.724	-249.54304	124.60479	1806.21933	-293.56997	123.94519	1733.30856	-227.19667	1143.61977	1524.04068	-402.95109	1732.41791	147.93358
182	36.517	-520.73841	1270.35683	-65.91049	-506.70975	1285.02182	-295.43209	-246.2796	1245.39452	-349.97765	-271.63273	1232.46178	6.6601	-385.25158	1608.228	-166.76306	-222.75837	1662.00531	-144.8604	-442.13272	1800.37811	-174.98341	-246.03542	1774.40384	-203.87817	-313.6257	1772.7005	-66.2176	-224.27628	1652.81601	-270.64129	-335.67734	1796.33209	-456.1776	-412.85683	1765.41397	-419.03091	-333.47878	1822.19742	-367.19929	-482.4062	2113.36823	-484.92001	-477.77489	2122.51678	-437.70832	-513.91937	2100.32669	-414.07799	-227.31827	1622.8598	-13.34882	-317.02351	1786.61163	124.3786	-330.76828	1744.0274	202.05952	-447.80502	2074.27689	234.60463	-424.59236	2088.38669	195.91259	-462.79518	2069.29443	162.47076	-404.99302	1087.66113	-433.38173	-368.57803	1054.3721	52.92579	-427.97157	562.18708	-255.08686	-322.03148	579.72191	-323.24642	-366.47598	564.49974	-161.90559	-379.33823	539.09344	-96.06564	-252.84258	555.30518	-36.973	-254.71975	547.67296	-186.92919	-296.51226	140.09516	-269.70875	-298.61195	154.58437	-189.87532	-216.81217	141.58331	-214.60594	-331.77498	192.88828	-116.82978	-258.27099	185.18295	-74.40639	-294.27099	164.18295	-158.40639	-449.92523	1042.05711	1740.86838	-419.9593	1056.59752	1456.46072	-252.3534	1132.45827	1742.21832	-415.95684	1565.70313	1593.72284	-278.11514	1591.31104	1589.93317	-447.24548	1783.86658	1599.66507	-293.73783	1728.47183	1513.75275	-293.87573	1725.1535	1669.0451	-342.28313	1547.4556	1409.23004	-412.68974	1400.83771	1132.33047	-459.62566	1408.10577	1196.85524	-387.05559	1475.0386	1178.4922	-604.43054	1595.69824	1128.29857	-564.09351	1633.60809	1144.84238	-571.65977	1614.38126	1195.08606	-316.11521	1547.59766	1802.26074	-369.05582	1371.68121	2018.12134	-293.48776	1431.93665	2028.88214	-294.8292	1351.06598	2044.478	-440.06294	1456.17889	2235.61447	-437.90497	1498.05374	2220.89233	-472.06947	1498.67081	2184.48074	-328.4771	1003.91335	1408.33771	-310.25623	1011.32637	1808.6441	-372.84706	455.37212	1450.60211	-272.97787	490.58876	1422.46902	-279.96897	458.29391	1543.32062	-355.54489	448.86982	1772.22458	-242.60628	485.62836	1786.55273	-316.06882	443.95172	1680.3656	-323.59814	130.23752	1417.9303	-294.53241	126.37037	1482.44675	-243.24261	127.56815	1417.75024	-322.64816	135.15778	1792.8949	-249.55685	124.64715	1806.40472	-293.5578	124.05684	1733.49945	-227.99471	1143.7632	1524.86389	-403.08159	1732.28851	148.35783
